# xmcd CD database file
#
# Track frame offsets:
#	150
#	10374
#	20280
#	31464
#	43038
#	51290
#	59381
#	65163
#	77177
#	86961
#	94575
#	100549
#	109465
#	121832
#	131991
#	145170
#	157109
#	166660
#	177372
#	186686
#
# Disc length: 2652 seconds
#
# Revision: 1
# Processed by: cddbd v1.5.1PL2 Copyright (c) Steve Scherf et al.
# Submitted via: CDex 1.51
#
DISCID=200a5a14
DTITLE=Johhny Cash - The Sun Records Years - Disk3
DYEAR=2003
DGENRE=Country
TTITLE0=Straight A's In Love
TTITLE1=Ballad Of A Teenage Queen
TTITLE2=Oh, Lonesome Me
TTITLE3=Port Of Lonely Hearts
TTITLE4=Guess Things Happen That Way
TTITLE5=Sugartime
TTITLE6=My Treasure
TTITLE7=You're The Nearest Thing To Heaven
TTITLE8=The Story Of A Broken Heart
TTITLE9=Come In Stranger
TTITLE10=You Tell Me
TTITLE11=Katy Too
TTITLE12=Next In line
TTITLE13=The Ways Of A Woman In love
TTITLE14=Thanks A lot
TTITLE15=Home Of The Blues
TTITLE16=It's Just About Time
TTITLE17=I Just Thought You's Like To Know
TTITLE18=Down The Street To 301
TTITLE19=I Walk The Line
EXTD=YEAR: 2003
EXTT0=
EXTT1=
EXTT2=
EXTT3=
EXTT4=
EXTT5=
EXTT6=
EXTT7=
EXTT8=
EXTT9=
EXTT10=
EXTT11=
EXTT12=
EXTT13=
EXTT14=
EXTT15=
EXTT16=
EXTT17=
EXTT18=
EXTT19=
PLAYORDER=
